<?xml version="1.0"?>
<svg xmlns="http://www.w3.org/2000/svg" viewBox="0 0 64 64" width="512" height="512"><g id="Database_network" data-name="Database network"><path d="M42,13.508a.147.147,0,0,0,0-.021v-.111C39.457,14.61,35.022,15,32,15s-7.453-.39-10-1.622V16c.273.67,3.957,2,10,2s9.727-1.33,10.006-2.042Z"/><path d="M4,52c.273.67,3.957,2,10,2s9.727-1.33,10.006-2.042l0-2.582C21.457,50.61,17.022,51,14,51c-1.045,0-1.98-.034-2.858-.1A22.093,22.093,0,0,1,4,49.389Z"/><path d="M4,47c.146.353,2.158,1.544,7.29,1.9.835.066,1.718.1,2.71.1,6.049,0,9.729-1.329,10.006-2.041l0-2.583C21.457,45.61,17.022,46,14,46a37.455,37.455,0,0,1-5.633-.412A16.271,16.271,0,0,1,4,44.385Z"/><path d="M4,42c.076.167,1.11,1.061,4.673,1.612A35.381,35.381,0,0,0,14,44c6.049,0,9.729-1.329,10.006-2.041l0-2.583C21.457,40.61,17.022,41,14,41s-7.453-.39-10-1.622Z"/><path d="M23.986,37c-.4-.722-4.061-2-9.986-2-6.017,0-9.692,1.318-10,2.033v.018C4.308,37.682,7.983,39,14,39,19.925,39,23.582,37.722,23.986,37Z"/><path d="M32,4c-6.017,0-9.692,1.318-10,2.033v.018C22.308,6.682,25.983,8,32,8c5.925,0,9.582-1.278,9.986-2C41.582,5.278,37.925,4,32,4Z"/><path d="M56.751,35.656A32.459,32.459,0,0,0,50,35c-6.025,0-9.7,1.318-10,2.032v.017C40.3,37.682,43.975,39,50,39a32.64,32.64,0,0,0,6.561-.618c2.415-.506,3.265-1.143,3.423-1.382C59.832,36.772,59.027,36.165,56.751,35.656Z"/><path d="M48.367,53.963c.525.022,1.065.037,1.633.037,6.043,0,9.727-1.33,10.006-2.042l0-2.582C57.457,50.61,53.022,51,50,51s-7.453-.39-10-1.622V52c.248.607,3.3,1.752,8.363,1.963Z"/><path d="M48.623,55.969c-.083,0-.174,0-.256-.006h0c-.995-.041-1.909-.12-2.742-.222a23.911,23.911,0,0,1-27.241,0c-.9.112-1.9.193-3,.231a25.922,25.922,0,0,0,33.24,0Z"/><path d="M50,46c-3.021,0-7.453-.39-10-1.622V47c.273.67,3.957,2,10,2s9.727-1.33,10.006-2.042l0-2.575a16.258,16.258,0,0,1-4.37,1.2A37.455,37.455,0,0,1,50,46Z"/><path d="M60,39.387a13.516,13.516,0,0,1-3.028.952A34.166,34.166,0,0,1,50,41c-3.021,0-7.453-.39-10-1.622V42c.271.671,3.951,2,10,2a35.381,35.381,0,0,0,5.327-.388c3.563-.551,4.6-1.445,4.679-1.655Z"/><path d="M22,18.378V21c.273.67,3.957,2,10,2s9.727-1.33,10.006-2.042l0-2.582C39.457,19.61,35.022,20,32,20S24.547,19.61,22,18.378Z"/><path d="M42,8.376C39.457,9.61,35.022,10,32,10s-7.453-.39-10-1.622V11c.273.67,3.957,2,10,2s9.727-1.33,10.006-2.042Z"/><path d="M44,12.95v2.266a24.011,24.011,0,0,1,11.858,18.3A20.855,20.855,0,0,1,57.915,34,26,26,0,0,0,44,12.95Z"/><path d="M20,12.95v2.266a24.011,24.011,0,0,0-11.858,18.3A20.855,20.855,0,0,0,6.085,34,26,26,0,0,1,20,12.95Z"/></g></svg>
